<svg preserveAspectRatio="none" width="100%" height="100%" overflow="visible" style="display: block;" viewBox="0 0 22 22" fill="none" xmlns="http://www.w3.org/2000/svg">
<g id="Container">
<path id="Icon" d="M11 13L9 11L11 9L13 11L11 13V13M8.875 7.125L6.375 4.625L11 0L15.625 4.625L13.125 7.125L11 5L8.875 7.125V7.125M4.625 15.625L0 11L4.625 6.375L7.125 8.875L5 11L7.125 13.125L4.625 15.625V15.625M17.375 15.625L14.875 13.125L17 11L14.875 8.875L17.375 6.375L22 11L17.375 15.625V15.625M11 22L6.375 17.375L8.875 14.875L11 17L13.125 14.875L15.625 17.375L11 22V22" fill="var(--fill-0, white)" fill-opacity="0.7"/>
</g>
</svg>
