<svg preserveAspectRatio="none" width="100%" height="100%" overflow="visible" style="display: block;" viewBox="0 0 11.6667 9.91667" fill="none" xmlns="http://www.w3.org/2000/svg">
<g id="Container">
<path id="Icon" d="M5.54167 9.91667C5.05556 9.91667 4.64236 9.74653 4.30208 9.40625C3.96181 9.06597 3.79167 8.65278 3.79167 8.16667H4.95833C4.95833 8.33194 5.01424 8.47049 5.12604 8.58229C5.23785 8.6941 5.37639 8.75 5.54167 8.75C5.70694 8.75 5.84549 8.6941 5.95729 8.58229C6.0691 8.47049 6.125 8.33194 6.125 8.16667C6.125 8.00139 6.0691 7.86285 5.95729 7.75104C5.84549 7.63924 5.70694 7.58333 5.54167 7.58333H0V6.41667H5.54167C6.02778 6.41667 6.44097 6.58681 6.78125 6.92708C7.12153 7.26736 7.29167 7.68056 7.29167 8.16667C7.29167 8.65278 7.12153 9.06597 6.78125 9.40625C6.44097 9.74653 6.02778 9.91667 5.54167 9.91667V9.91667M0 4.08333V2.91667H7.875C8.12778 2.91667 8.33681 2.83403 8.50208 2.66875C8.66736 2.50347 8.75 2.29444 8.75 2.04167C8.75 1.78889 8.66736 1.57986 8.50208 1.41458C8.33681 1.24931 8.12778 1.16667 7.875 1.16667C7.62222 1.16667 7.41319 1.24931 7.24792 1.41458C7.08264 1.57986 7 1.78889 7 2.04167H5.83333C5.83333 1.46806 6.03021 0.984375 6.42396 0.590625C6.81771 0.196875 7.30139 0 7.875 0C8.44861 0 8.93229 0.196875 9.32604 0.590625C9.71979 0.984375 9.91667 1.46806 9.91667 2.04167C9.91667 2.61528 9.71979 3.09896 9.32604 3.49271C8.93229 3.88646 8.44861 4.08333 7.875 4.08333H0V4.08333M9.625 8.75V7.58333C9.87778 7.58333 10.0868 7.50069 10.2521 7.33542C10.4174 7.17014 10.5 6.96111 10.5 6.70833C10.5 6.45556 10.4174 6.24653 10.2521 6.08125C10.0868 5.91597 9.87778 5.83333 9.625 5.83333H0V4.66667H9.625C10.1986 4.66667 10.6823 4.86354 11.076 5.25729C11.4698 5.65104 11.6667 6.13472 11.6667 6.70833C11.6667 7.28194 11.4698 7.76563 11.076 8.15938C10.6823 8.55313 10.1986 8.75 9.625 8.75V8.75" fill="var(--fill-0, white)"/>
</g>
</svg>
